<svg viewBox="0 0 800 600" xmlns="http://www.w3.org/2000/svg">
  <defs>
    <linearGradient id="bg" x1="0" y1="0" x2="1" y2="1">
      <stop offset="0%" stop-color="#0D1826"/>
      <stop offset="55%" stop-color="#26405A"/>
      <stop offset="100%" stop-color="#7CA8CC"/>
    </linearGradient>
    <radialGradient id="glow" cx="60%" cy="15%" r="65%">
      <stop offset="0%" stop-color="#ffffff" stop-opacity="0.2"/>
      <stop offset="100%" stop-color="#ffffff" stop-opacity="0"/>
    </radialGradient>
  </defs>
  <rect width="800" height="600" fill="url(#bg)"/>
  <rect width="800" height="600" fill="url(#glow)"/>
  <g fill="#F4F1E5" opacity="0.9">
    <rect x="170" y="280" width="70" height="160"/>
    <rect x="260" y="220" width="80" height="220"/>
    <rect x="360" y="260" width="60" height="180"/>
    <rect x="440" y="180" width="90" height="260"/>
    <rect x="550" y="250" width="70" height="190"/>
  </g>
  <g fill="#1D3149" opacity="0.5">
    <rect x="185" y="300" width="14" height="14"/><rect x="212" y="300" width="14" height="14"/>
    <rect x="185" y="330" width="14" height="14"/><rect x="212" y="330" width="14" height="14"/>
    <rect x="278" y="245" width="14" height="14"/><rect x="308" y="245" width="14" height="14"/>
    <rect x="278" y="280" width="14" height="14"/><rect x="308" y="280" width="14" height="14"/>
    <rect x="460" y="205" width="14" height="14"/><rect x="495" y="205" width="14" height="14"/>
    <rect x="460" y="240" width="14" height="14"/><rect x="495" y="240" width="14" height="14"/>
  </g>
  <g stroke="#F4F1E5" stroke-width="4.5" fill="none" stroke-linecap="round" opacity="0.85">
    <path d="M120 460 Q400 435 690 460"/>
  </g>
</svg>
